<svg width="420" height="272" viewBox="0 0 420 272" fill="none" xmlns="http://www.w3.org/2000/svg">
<path d="M168.345 198.907C164.359 203.641 152.742 199.572 142.238 195.893C138.453 194.495 134.957 192.416 131.924 189.757C129.315 187.476 127.586 185.964 127.738 184.144C128.006 180.921 136.033 174.883 143.186 172.682C151.44 170.142 153.513 173.008 156.722 173.952C166.701 176.887 172.962 193.423 168.345 198.907Z" fill="#FFEDC0"/>
<path d="M127.451 184.31C131.206 188.749 137.136 196.782 143.895 194.375C144.748 194.071 144.381 192.701 143.518 193.009C137.571 195.127 131.808 187.273 128.453 183.308C127.863 182.611 126.864 183.618 127.451 184.31Z" fill="#282C3F"/>
<path d="M130.099 182.897C134.507 181.397 139.339 178.876 143.863 181.392C144.661 181.836 145.377 180.612 144.579 180.168C139.633 177.418 134.596 179.872 129.722 181.531C128.863 181.823 129.232 183.192 130.099 182.897V182.897Z" fill="#282C3F"/>
<path d="M130.409 186.579C134.748 185.219 138.72 185.662 143.039 186.843C143.218 186.886 143.407 186.858 143.565 186.764C143.724 186.671 143.839 186.52 143.888 186.342C143.937 186.165 143.915 185.976 143.827 185.814C143.739 185.653 143.592 185.532 143.416 185.477C138.868 184.233 134.592 183.784 130.032 185.212C129.164 185.484 129.535 186.852 130.409 186.579H130.409Z" fill="#282C3F"/>
<path d="M132.585 180.187C137.738 175.408 144.181 172.789 150.929 171.122C151.113 171.064 151.269 170.937 151.361 170.767C151.454 170.597 151.477 170.397 151.426 170.211C151.374 170.024 151.252 169.865 151.085 169.766C150.918 169.668 150.72 169.638 150.531 169.682C143.536 171.411 136.866 174.182 131.528 179.131C130.822 179.786 131.881 180.84 132.585 180.187Z" fill="#282C3F"/>
<path d="M173.984 205.972C199.149 212.891 236.383 197.903 244.489 171.683C250.683 151.648 239.476 126.334 224.608 123.916C220.024 123.171 213.099 124.266 209.503 128.544C203.21 136.03 212.657 145.825 206.613 157.426C203.251 163.478 197.637 167.962 190.989 169.906C178.623 173.305 163.772 164.787 151.331 171.272C146.673 173.7 143.61 180.279 143.795 186.009C144.133 196.489 157.325 201.392 173.984 205.972Z" fill="#7685BD"/>
<path d="M150.995 169.549C145.639 173.602 143.605 180.919 143.834 187.414C144.026 192.843 146.793 195.764 151.344 198.424C157.32 201.916 164.117 204.135 170.751 205.991C175.396 207.29 180.633 208.999 185.521 208.917C185.705 208.911 185.879 208.833 186.007 208.701C186.135 208.569 186.206 208.392 186.206 208.209C186.206 208.025 186.135 207.848 186.007 207.716C185.879 207.584 185.705 207.506 185.521 207.5C181.733 207.564 177.718 206.344 174.084 205.416C168.071 203.954 162.198 201.967 156.532 199.479C152.547 197.673 146.932 195.205 145.652 190.603C143.858 184.16 146.35 174.829 151.711 170.772C152.429 170.229 151.724 168.998 150.995 169.549H150.995Z" fill="#282C3F"/>
<path d="M151.501 170.853C163.856 167.161 176.535 169.857 189.187 169.327C190.096 169.289 190.101 167.872 189.187 167.91C176.401 168.445 163.61 165.756 151.124 169.487C150.948 169.541 150.801 169.662 150.713 169.824C150.625 169.985 150.603 170.175 150.651 170.352C150.7 170.529 150.816 170.681 150.975 170.774C151.133 170.868 151.322 170.896 151.501 170.853Z" fill="#282C3F"/>
<path d="M127.951 184.294L132.571 180.18C133.254 179.572 132.248 178.573 131.568 179.178L126.948 183.292C126.265 183.9 127.271 184.9 127.951 184.294V184.294Z" fill="#282C3F"/>
<path d="M142.902 73.6316C141.197 74.8221 141.72 78.7343 143.047 81.1887C143.287 81.6324 145.152 85.0823 147.556 84.822C149.853 84.5731 151.632 81.0431 151.046 78.2821C150.234 74.4601 144.912 72.2276 142.902 73.6316Z" fill="#FFEDC0"/>
<path d="M188.186 107.295C189.099 118.638 188.739 130.047 187.113 141.309C184.623 157.732 152.87 230.388 176.707 256.447C198.427 280.191 242.037 267.412 242.037 267.412L252.492 260.461L233.696 120.063L188.186 107.295Z" fill="#FFEDC0"/>
<path d="M188.054 108.267C189.478 124.341 187.653 139.568 183.249 155.085C179.057 169.856 172.503 184.079 169.639 199.192C168.399 206.127 167.555 213.126 167.111 220.156C166.627 226.738 165.711 233.811 167.279 240.304C169.529 249.617 177.014 260.869 186.197 264.697C187.038 265.048 187.405 263.677 186.574 263.331C174.391 258.252 167.703 242.551 167.933 230.342C168.19 216.764 169.513 202.521 173.435 189.482C177.477 176.047 182.814 163.074 186.231 149.435C189.639 135.996 190.736 122.074 189.472 108.267C189.393 107.366 187.974 107.358 188.054 108.267V108.267Z" fill="#282C3F"/>
<path d="M8.93356 213.867C12.2601 215.123 14.7683 215.254 16.2504 215.966C25.3074 220.86 34.9216 224.644 44.8852 227.237C52.5235 229.159 60.3655 230.153 68.2419 230.2C75.9074 230.39 83.5559 229.391 90.9151 227.239C100.371 224.262 109.069 219.272 116.409 212.612C122.548 207.034 129.997 200.264 132.59 189.648C135.914 176.033 130.868 163.937 137.19 160.192C138.832 159.714 140.572 159.68 142.232 160.093C148.439 162.73 143.896 199.504 122.816 219.336C104.667 236.41 82.1375 245.318 34.6115 231.932C24.3606 229.045 7.93759 222.825 1.03811 223.22C-1.94715 223.39 3.1162 211.671 8.93356 213.867Z" fill="#626A8E"/>
<path d="M135.398 129.665C127.428 129.269 129.716 144.415 129.813 145.501C130.367 151.65 129.939 157.859 131.664 161.133C132.656 163.016 134.525 163.431 138.264 164.999C144.671 167.687 149.275 166.888 152.605 165.024C152.661 164.992 156.473 161.57 156.498 161.547C163.314 155.256 169.515 147.15 165.011 141.512C161.054 136.561 143.103 130.048 135.398 129.665Z" fill="#626A8E"/>
<path d="M129.098 135.087C127.569 143.293 127.432 154.172 131.073 161.882C131.374 162.519 132.319 161.963 132.019 161.329C128.532 153.944 128.685 143.266 130.155 135.378C130.283 134.689 129.227 134.394 129.098 135.087H129.098Z" fill="#282C3F"/>
<path d="M131.147 162.009C133.269 164.065 135.912 164.835 138.675 165.69C141.127 166.449 144.248 167.747 146.872 167.403C147.562 167.313 147.571 166.217 146.872 166.308C144.573 166.609 141.788 165.487 139.625 164.836C136.874 164.008 134.037 163.285 131.921 161.235C131.415 160.744 130.639 161.518 131.147 162.009V162.009Z" fill="#282C3F"/>
<path d="M147.018 167.384C150.278 166.79 152.559 165.972 155.034 163.641C158.528 160.349 162.172 157.234 164.537 152.978C164.879 152.362 163.933 151.809 163.591 152.426C161.405 156.359 158.142 159.079 154.975 162.159C152.767 164.428 149.864 165.895 146.727 166.328C146.034 166.455 146.328 167.51 147.018 167.384L147.018 167.384Z" fill="#282C3F"/>
<path d="M134.87 129.924C134.282 130.101 133.716 130.344 133.183 130.649C132.521 131.028 130.844 131.988 130.699 133.232C130.391 135.873 136.946 140.233 164.946 147.842C164.946 147.842 167.675 148.262 166.25 143.268C166.026 142.68 165.685 142.143 165.248 141.69" stroke="#282C3F" stroke-width="0.99203" stroke-linecap="round" stroke-linejoin="round"/>
<path d="M143.106 131.187C143.106 131.187 154.673 134.595 158.499 137.136" stroke="#282C3F" stroke-width="0.82669" stroke-linecap="round" stroke-linejoin="round"/>
<path d="M136.935 131.702C138.95 130.315 141.936 132.683 142.103 132.818C142.753 133.34 143.27 134.008 143.61 134.769C143.827 135.265 144.48 136.759 143.895 137.433C143.499 137.89 142.806 137.659 138.764 136.726C136.678 136.244 136.236 136.16 135.906 135.671C135.174 134.586 135.697 132.554 136.935 131.702Z" fill="#4A526D" stroke="#282C3F" stroke-width="1.19453" stroke-miterlimit="10"/>
<path d="M161.291 140.62C160.451 138.324 156.644 138.528 156.43 138.542C155.598 138.592 154.789 138.838 154.071 139.261C153.607 139.54 152.209 140.381 152.295 141.269C152.354 141.871 153.053 142.084 156.89 143.66C158.87 144.473 159.279 144.661 159.832 144.452C161.057 143.991 161.807 142.032 161.291 140.62Z" fill="#4A526D" stroke="#282C3F" stroke-width="1.19453" stroke-miterlimit="10"/>
<path d="M146.527 138.754L148.216 137.088C148.673 136.638 147.969 135.934 147.512 136.385L145.823 138.05C145.366 138.501 146.07 139.205 146.527 138.754Z" fill="white"/>
<path d="M149.014 139.004L149.523 138.597C149.616 138.504 149.669 138.377 149.669 138.245C149.668 138.113 149.615 137.987 149.523 137.893C149.429 137.8 149.303 137.748 149.171 137.748C149.04 137.755 148.916 137.806 148.819 137.893L148.31 138.3C148.217 138.393 148.164 138.52 148.164 138.652C148.165 138.784 148.217 138.91 148.31 139.004C148.403 139.097 148.53 139.149 148.662 139.15C148.793 139.142 148.917 139.091 149.014 139.004H149.014Z" fill="white"/>
<path d="M132.843 139.188C129.983 144.57 133.08 153.191 135.469 158.24C135.743 158.819 136.602 158.314 136.329 157.738C134.144 153.122 131.061 144.663 133.703 139.691C134.003 139.125 133.144 138.622 132.843 139.188Z" fill="white"/>
<path d="M149.506 164.874L152.606 162.917C153.147 162.576 152.648 161.715 152.104 162.058L149.004 164.014C148.463 164.355 148.962 165.217 149.506 164.874H149.506Z" fill="white"/>
<path d="M180.671 94.2638C178.917 94.4006 174.382 94.9604 173.951 95.9408C172.893 98.3451 189.481 107.224 189.481 107.224C211.375 114.901 231.342 153.961 233.087 164.074C239.005 198.371 247.245 222.891 245.128 245.431C243.011 267.97 242.095 266.999 242.095 266.999L282.137 261.768C287.854 261.021 293.216 258.583 297.535 254.768C301.855 250.953 304.935 245.935 306.38 240.358C312.503 216.735 321.216 176.868 316.734 155.617C310.1 124.167 305.702 109.763 291.897 88.8826L291.892 88.8766C291.782 88.7598 288.03 84.6969 287.642 73.4432C287.247 62.022 284.675 34.1461 269.717 18.9376C252.304 1.23217 223.429 2.12267 223.429 2.12267C223.429 2.12267 184.891 1.34012 175.132 49.0107C170.333 50.0057 162.228 50.0469 151.991 51.9059C139.71 54.136 138.716 56.4106 137.303 59.027C133.73 65.6418 142.964 78.2033 151.264 84.605C162.397 93.8331 168.965 94.592 172.963 93.3917C174.212 93.0168 180.641 90.8206 182.561 92.5198C182.72 92.6604 183.254 93.1324 183.143 93.537C182.98 94.1327 181.527 94.197 180.671 94.2638Z" fill="#98A9EA"/>
<path d="M312.659 209.327C311.262 218.688 308.914 227.882 305.652 236.767C302.181 245.891 297.783 255.549 287.923 259.008C287.068 259.308 287.436 260.677 288.3 260.374C297.344 257.202 301.775 249.552 305.39 241.163C309.713 231.132 312.294 220.46 314.027 209.704C314.17 208.812 312.804 208.428 312.659 209.327Z" fill="#282C3F"/>
<path d="M225.247 146.761C227.491 151.609 228.808 156.987 230.264 162.105C232.527 170.056 234.605 178.06 236.613 186.079C239.829 198.919 243.743 212.091 245.359 225.262C245.883 230.276 246.006 235.325 245.729 240.359C245.531 245.567 245.291 251.127 243.408 256.044C243.11 256.823 244.361 257.16 244.657 256.388C247.812 248.149 247.423 237.907 246.97 229.25C246.694 223.996 245.579 218.892 244.468 213.761C240.867 197.12 236.773 180.584 232.187 164.153C230.507 158.134 229.001 151.803 226.365 146.108C226.015 145.353 224.899 146.01 225.247 146.761Z" fill="#4D505C"/>
<path d="M228.939 41.2095C228.939 41.2095 269.697 42.4863 275.73 43.3337C281.763 44.1811 264.047 66.7488 264.047 66.7488L305.934 62.4356L247.092 83.9534C247.092 83.9534 249.092 63.7687 253.395 59.0177C257.699 54.2667 224.619 58.0549 224.619 58.0549L228.939 41.2095Z" fill="#FDB7AE"/>
<path d="M177.804 138.871C170.557 142.21 179.607 154.573 180.197 155.49C183.539 160.683 186.038 166.384 189.085 168.487C190.836 169.696 192.686 169.199 196.726 168.857C203.65 168.272 207.359 165.433 209.446 162.239C209.481 162.185 211.273 157.387 211.284 157.356C214.408 148.624 216.145 138.569 209.539 135.659C203.738 133.104 184.809 135.643 177.804 138.871Z" fill="#626A8E"/>
<path d="M208.222 142.358C213.065 138.032 207.498 126.684 206.939 126.008C206.183 125.096 206.349 123.579 204.906 123.009C204.069 122.678 202.847 121.796 202.001 122.608C200.346 124.198 201.805 129.362 201.788 136.038C201.777 140.457 201.344 142.198 202.669 143.375C203.835 144.412 206.587 143.819 208.222 142.358Z" fill="#626A8E"/>
<path d="M180.291 145.064C174.774 141.637 178.301 129.499 178.736 128.737C179.323 127.708 178.898 126.242 180.22 125.433C180.988 124.963 182.04 123.883 183.013 124.537C184.917 125.818 184.371 131.157 185.539 137.73C186.312 142.081 187.039 143.721 185.937 145.109C184.967 146.331 182.154 146.221 180.291 145.064Z" fill="#626A8E"/>
<path d="M418.477 245.07C418.479 244.9 418.472 242.332 416.765 241.387C414.94 240.378 412.205 241.794 411.2 242.283C405.65 244.985 398.965 244.801 392.901 246.264C389.497 247.086 373.3 250.995 357.802 245.966C350.473 243.587 351.15 241.757 340.787 238.003C336.674 236.513 329.186 233.801 320.776 233.126C305.883 231.932 303.43 238.359 282.681 240.492C274.85 241.337 266.945 241.237 259.138 240.193C251.521 239.32 244.084 237.272 237.094 234.122C228.142 229.865 220.219 223.719 213.873 216.107C208.567 209.732 202.128 201.997 201.032 191.125C199.626 177.18 206.301 165.9 200.559 161.315C198.998 160.615 197.28 160.34 195.579 160.519C189.066 162.272 188.468 199.321 206.596 221.879C224.783 244.51 264.517 251.956 292.205 246.563C303.338 244.394 312.295 240.194 326.662 242.582C340.779 244.928 341.478 250.538 358.765 254.227C361.246 254.756 374.71 257.312 395.791 254.824C395.791 254.824 410.756 254.853 416.123 249.648C416.752 249.038 418.451 247.39 418.477 245.07Z" fill="#626A8E"/>
<path d="M174.742 146.624C177.207 154.637 182.107 164.262 188.923 169.434C189.484 169.86 190.031 168.909 189.476 168.488C182.984 163.563 178.148 153.969 175.799 146.333C175.592 145.661 174.534 145.947 174.742 146.624H174.742Z" fill="#282C3F"/>
<path d="M189.051 169.509C192.012 170.333 194.758 169.774 197.719 169.222C200.151 168.768 203.394 168.452 205.492 166.99C206.066 166.59 205.519 165.641 204.939 166.045C203.119 167.313 200.264 167.616 198.138 168.03C195.203 168.603 192.296 169.275 189.342 168.454C189.204 168.421 189.058 168.443 188.936 168.515C188.813 168.587 188.724 168.704 188.686 168.841C188.648 168.978 188.665 169.124 188.733 169.249C188.801 169.373 188.915 169.467 189.051 169.509V169.509Z" fill="#282C3F"/>
<path d="M205.492 166.99C207.952 165.107 209.706 163.329 210.802 160.347C212.506 155.708 214.293 151.009 214.435 146.014C214.43 145.872 214.37 145.738 214.268 145.639C214.166 145.541 214.029 145.485 213.887 145.485C213.745 145.485 213.609 145.541 213.507 145.639C213.404 145.738 213.344 145.872 213.34 146.014C213.145 152.816 210.381 161.88 204.939 166.045C204.387 166.467 204.932 167.419 205.492 166.99Z" fill="#282C3F"/>
<path d="M201.242 123.562C201.337 128.578 201.427 133.598 201.361 138.615C201.361 138.697 201.389 138.778 201.439 138.844C201.489 138.909 201.559 138.957 201.639 138.98C204.419 139.626 207.295 139.756 210.123 139.365C210.305 139.343 210.532 139.208 210.502 138.986C209.883 134.358 209.663 120.878 201.898 122.211C201.418 122.293 201.622 123.024 202.1 122.942C208.067 121.917 209.955 133.82 209.586 137.807C209.482 138.927 210.253 138.332 208.889 138.755C208.496 138.836 208.097 138.878 207.696 138.879C206.582 138.958 202.783 139.215 202.149 138.159C201.691 137.395 202.136 135.097 202.132 134.224C202.125 132.559 202.11 130.895 202.087 129.231C202.064 127.341 202.035 125.452 202 123.562C201.997 123.464 201.955 123.371 201.884 123.303C201.814 123.235 201.719 123.197 201.621 123.197C201.523 123.197 201.429 123.235 201.358 123.303C201.287 123.371 201.246 123.464 201.242 123.562Z" fill="#282C3F"/>
<path d="M182.978 124.326C175.3 124.349 176.777 138.003 177.625 142.606C177.648 142.685 177.696 142.755 177.761 142.805C177.827 142.855 177.908 142.883 177.99 142.884C181.171 143.1 183.442 142.237 186.19 140.786C186.261 140.742 186.317 140.677 186.348 140.6C186.379 140.523 186.385 140.438 186.365 140.358C185.435 135.427 184.657 130.467 183.885 125.51C183.81 125.03 183.08 125.234 183.154 125.711C183.423 127.438 183.698 129.164 183.978 130.889C184.218 132.373 184.463 133.857 184.711 135.339C184.897 136.439 185.801 138.818 185.507 139.886C185.335 140.509 184.631 140.805 183.872 141.153C182.6 141.737 180.868 142.486 179.461 142.196C178.325 141.962 178.751 142.223 178.149 141.282C176.972 139.441 177.533 135.132 177.823 133.037C178.22 130.165 179.005 125.096 182.978 125.083C183.076 125.08 183.169 125.038 183.237 124.968C183.305 124.897 183.343 124.803 183.343 124.705C183.343 124.606 183.305 124.512 183.237 124.442C183.169 124.371 183.076 124.329 182.978 124.326V124.326Z" fill="#282C3F"/>
<path d="M177.456 139.345C177.017 139.774 176.628 140.252 176.297 140.769C175.886 141.411 174.845 143.039 175.293 144.208C176.245 146.691 184.076 147.52 212.417 141.298C212.417 141.298 215.029 140.407 211.451 136.641C210.98 136.224 210.429 135.906 209.832 135.707" stroke="#282C3F" stroke-width="0.99203" stroke-linecap="round" stroke-linejoin="round"/>
<path d="M185.34 136.652C185.34 136.652 197.17 134.317 201.739 134.797" stroke="#282C3F" stroke-width="0.82669" stroke-linecap="round" stroke-linejoin="round"/>
<path d="M179.985 141.159C179.197 139.104 178.926 136.888 179.196 134.705C179.466 132.521 180.269 130.438 181.533 128.637C181.81 128.234 181.153 127.854 180.879 128.255C179.563 130.143 178.727 132.323 178.443 134.606C178.16 136.89 178.438 139.208 179.254 141.36C179.422 141.813 180.155 141.617 179.985 141.159V141.159Z" fill="white"/>
<path d="M203.087 125.406C206.59 127.796 207.362 133.593 207.712 137.473C207.756 137.954 208.514 137.959 208.47 137.473C208.088 133.238 207.283 127.354 203.469 124.751C203.065 124.476 202.686 125.132 203.087 125.406H203.087Z" fill="white"/>
<path d="M190.046 142.633C190.493 140.599 192.056 139.26 193.669 138.085C194.237 137.671 193.687 136.715 193.112 137.134C191.268 138.477 189.494 140.015 188.982 142.34C188.83 143.032 189.893 143.327 190.046 142.633Z" fill="white"/>
<path d="M194.577 141.596C195.02 141.015 195.491 140.457 195.981 139.916C196.457 139.391 195.679 138.609 195.201 139.137C194.648 139.748 194.125 140.384 193.624 141.04C193.551 141.166 193.531 141.316 193.568 141.457C193.605 141.598 193.697 141.719 193.822 141.794C193.949 141.864 194.099 141.883 194.239 141.846C194.38 141.809 194.5 141.719 194.577 141.596Z" fill="white"/>
<path d="M196.879 141.225C197.022 141.22 197.158 141.16 197.257 141.057C197.357 140.954 197.412 140.817 197.412 140.674C197.412 140.531 197.357 140.394 197.257 140.291C197.158 140.188 197.022 140.128 196.879 140.123C196.736 140.128 196.601 140.188 196.502 140.291C196.402 140.394 196.347 140.531 196.347 140.674C196.347 140.817 196.402 140.954 196.502 141.057C196.601 141.16 196.736 141.22 196.879 141.225Z" fill="white"/>
<path d="M149.644 11.7859C149.644 11.7859 191.645 3.99228 229.465 23.1818C231.012 23.9668 231.595 25.6227 231.714 27.3526C232.436 37.8641 225.467 97.6138 178.97 54.1067C178.97 54.1067 176.588 50.8254 165.957 51.5421L143.556 54.5218C141.773 54.8305 141.265 54.244 141.113 52.4416C140.365 43.6278 139.399 19.8732 149.644 11.7859Z" fill="#E0E6FF"/>
<path d="M136.29 57.1766C134.868 57.3456 133.818 54.025 132.7 54.2518C131.974 54.3992 131.623 55.9116 131.585 56.9367C131.479 59.83 134.161 64.8924 136.201 63.4258C138.896 61.489 140.198 59.7093 139.933 57.1095C139.828 56.0841 139.377 54.7412 138.748 54.6803C137.876 54.5961 137.515 57.0312 136.29 57.1766Z" fill="#626A8E"/>
<path d="M141.618 36.9196C141.65 30.1786 142.173 22.671 145.442 16.6197C147.416 12.9659 150.054 10.4108 154.471 10.2149C157.676 10.0727 161.085 10.7698 164.262 11.112C164.959 11.1871 164.954 10.0965 164.262 10.022C157.338 9.27622 150.564 7.51327 145.907 13.8402C141.21 20.2217 140.564 29.283 140.527 36.9196C140.532 37.0608 140.591 37.1947 140.693 37.2929C140.795 37.3911 140.931 37.446 141.072 37.446C141.214 37.446 141.35 37.3911 141.451 37.2929C141.553 37.1947 141.613 37.0608 141.618 36.9196Z" fill="#4D505C"/>
<path d="M142.077 55.3677C153.577 53.8191 165.12 52.6993 176.705 52.0082C177.403 51.9663 177.408 50.8761 176.705 50.9182C165.024 51.6185 153.384 52.7514 141.787 54.3166C141.094 54.4098 141.389 55.4602 142.077 55.3677V55.3677Z" fill="#4D505C"/>
<path d="M230.742 37.0277C229.944 42.9574 228.396 48.7617 226.133 54.3011C223.624 60.3665 219.927 68.298 212.159 67.7262C211.458 67.6747 211.462 68.7649 212.159 68.8162C218.356 69.2724 222.32 64.6008 224.936 59.5257C228.455 52.5607 230.773 45.0528 231.794 37.3175C231.89 36.6314 230.839 36.3349 230.742 37.0277V37.0277Z" fill="#4D505C"/>
<path d="M221.284 20.1415C224.505 20.1488 227.639 21.196 230.217 23.1272C233.566 25.6813 232.455 30.0972 231.585 33.6495C231.419 34.3307 232.47 34.6214 232.637 33.9393C233.471 30.5343 234.791 25.8794 231.94 23.1281C229.023 20.4853 225.221 19.0308 221.284 19.0515C221.142 19.0564 221.008 19.116 220.91 19.2176C220.812 19.3193 220.757 19.4551 220.757 19.5965C220.757 19.7378 220.812 19.8736 220.91 19.9753C221.008 20.077 221.142 20.1365 221.284 20.1415Z" fill="#4D505C"/>
<path d="M178.642 69.7802L191.077 66.2959C191.212 66.2536 191.326 66.1606 191.393 66.0365C191.461 65.9123 191.478 65.7668 191.44 65.6305C191.403 65.4942 191.314 65.3778 191.192 65.3059C191.07 65.2339 190.925 65.2121 190.788 65.2449L178.352 68.7292C178.217 68.7715 178.104 68.8645 178.036 68.9886C177.969 69.1128 177.952 69.2583 177.989 69.3946C178.027 69.5309 178.116 69.6473 178.238 69.7192C178.36 69.7912 178.505 69.813 178.642 69.7802Z" fill="#626A8E"/>
<path d="M178.572 74.3814C181.105 75.3669 183.787 75.9166 186.504 76.0074C187.206 76.0328 187.204 74.9428 186.504 74.9174C183.885 74.8235 181.301 74.2869 178.862 73.3303C178.207 73.0759 177.923 74.1294 178.572 74.3814Z" fill="#626A8E"/>
<path d="M178.53 79.7629L178.516 79.6954C178.493 79.6154 178.452 79.5416 178.396 79.4797C178.341 79.4177 178.272 79.3692 178.194 79.3379C178.117 79.3065 178.034 79.2931 177.951 79.2986C177.868 79.3041 177.787 79.3284 177.715 79.3697C176.599 80.052 178.054 81.6006 178.604 82.1921C179.668 83.3241 181.046 84.1134 182.562 84.4594C183.245 84.6194 183.536 83.5687 182.852 83.4084C181.42 83.0953 180.131 82.3212 179.182 81.205C179.025 81.0193 178.878 80.8245 178.744 80.6217C178.663 80.5012 178.588 80.3776 178.517 80.2508C178.46 80.0574 178.376 80.0774 178.265 80.3109L177.464 79.9852L177.478 80.0526C177.625 80.7383 178.676 80.4482 178.53 79.7629V79.7629Z" fill="#626A8E"/>
<path d="M135.863 63.4632C134.395 62.7404 132.662 59.8792 131.871 58.455C131.155 57.1657 131.078 54.7218 133.239 55.4187C133.865 55.6275 134.428 55.9918 134.874 56.4772C135.321 56.9626 135.637 57.5534 135.792 58.1941C135.835 58.3289 135.928 58.4421 136.052 58.5097C136.176 58.5773 136.322 58.5941 136.458 58.5566C136.594 58.519 136.711 58.43 136.783 58.3083C136.855 58.1867 136.877 58.0418 136.844 57.9043C136.645 57.3782 136.601 56.8064 136.717 56.2561C136.832 55.7057 137.103 55.1998 137.496 54.7977C138.752 54.3322 139.252 54.71 138.997 55.9311C138.949 56.977 138.697 58.0034 138.255 58.9527C137.517 60.6373 136.61 62.2435 135.55 63.747C135.157 64.3305 136.102 64.8766 136.492 64.2971C137.815 62.4735 138.877 60.4742 139.647 58.3571C140.032 57.1596 140.623 54.395 139.426 53.4048C138.749 52.8447 137.834 53.205 137.163 53.6787C135.657 54.7414 135.406 56.507 135.792 58.1941L136.844 57.9044C136.659 57.1756 136.312 56.4977 135.829 55.9212C135.346 55.3448 134.739 54.8844 134.053 54.5743C132.976 54.0929 131.155 53.7627 130.398 54.937C129.541 56.2656 130.393 58.1437 131.112 59.3166C131.754 60.366 132.572 61.3272 133.312 62.3083C133.799 63.1583 134.486 63.8776 135.312 64.4044C135.94 64.7134 136.493 63.7737 135.863 63.4633V63.4632Z" fill="#4D505C"/>
<path d="M137.138 68.5253C143.369 81.3947 156.992 93.409 171.842 93.7968C171.983 93.7918 172.117 93.7322 172.215 93.6306C172.314 93.5289 172.368 93.3931 172.368 93.2518C172.368 93.1104 172.314 92.9746 172.215 92.873C172.117 92.7713 171.983 92.7117 171.842 92.7068C157.374 92.329 144.139 80.4897 138.08 67.9752C137.774 67.3439 136.833 67.896 137.138 68.5253H137.138Z" fill="#4D505C"/>
<path d="M141.384 77.2309C141.595 78.8173 141.903 80.3892 142.307 81.9378C142.542 82.8275 142.688 84.2805 143.574 84.7987C145.116 85.7001 147.607 85.0323 148.165 83.3092C148.382 82.6404 147.33 82.3539 147.114 83.0195C146.744 84.1598 144.669 84.3838 143.914 83.5448C143.583 82.8624 143.371 82.1287 143.287 81.3751C142.918 79.9146 142.634 78.4342 142.436 76.9411C142.341 76.2493 141.29 76.5438 141.384 77.2309L141.384 77.2309Z" fill="#4D505C"/>
<path d="M143.788 78.8515C143.999 80.5129 144.517 82.1207 145.316 83.5927C145.652 84.2091 146.594 83.6596 146.258 83.0425C145.543 81.7426 145.076 80.3216 144.879 78.8515C144.789 78.166 143.697 78.157 143.788 78.8515L143.788 78.8515Z" fill="#4D505C"/>
<path d="M231.656 42.1042C242.728 42.2328 253.825 42.1522 264.891 42.5039C267.155 42.6547 269.408 42.9325 271.641 43.336C272.439 43.3413 273.235 43.4033 274.024 43.5215L277.375 47.7362C277.022 48.8904 276.418 49.9527 275.608 50.8474C272.204 55.5322 268.095 59.8257 264.361 64.2529C263.911 64.7861 264.679 65.5609 265.132 65.0237L273.007 55.6874C274.67 53.7163 276.95 51.6333 277.986 49.2111C279.215 46.3384 278.395 43.3138 275.213 42.5235C269.211 41.0328 262.46 41.3721 256.321 41.3008L231.656 41.0142C231.515 41.019 231.381 41.0786 231.283 41.1803C231.184 41.2819 231.129 41.4178 231.129 41.5591C231.129 41.7005 231.184 41.8364 231.283 41.938C231.381 42.0397 231.515 42.0993 231.656 42.1041V42.1042Z" fill="#626A8E"/>
<path d="M279.022 65.1664C288.13 64.6136 297.112 63.0031 306.189 62.1797L306.044 61.1092C294.434 65.5081 282.931 70.1693 271.534 75.0928C270.891 75.3703 271.446 76.3096 272.084 76.034C283.395 71.1493 294.811 66.5247 306.334 62.1602C306.862 61.9602 306.85 61.0297 306.189 61.0897C297.112 61.9131 288.13 63.5236 279.022 64.0765C278.325 64.1188 278.32 65.2091 279.022 65.1664Z" fill="#626A8E"/>
<path d="M251.443 60.3959C250.104 64.7465 248.93 69.1378 247.992 73.593C247.268 77.0329 245.89 81.2741 246.286 84.7916C246.292 84.9093 246.333 85.0226 246.405 85.1165C246.476 85.2103 246.574 85.2802 246.686 85.3171C248.794 86.1742 251.978 83.7355 253.762 82.9324L266.566 77.1665C267.205 76.8788 266.651 75.9392 266.015 76.2253L256.224 80.6345C254.607 81.3627 252.681 82.6633 250.952 83.0087L249.445 83.687C247.566 83.4199 246.996 82.5197 247.734 80.9865C247.629 77.9825 248.894 74.4339 249.558 71.5302C250.393 67.8759 251.392 64.268 252.494 60.6857C252.701 60.0137 251.649 59.7264 251.443 60.3959Z" fill="#626A8E"/>
<path d="M186.594 16.8525L186.898 15.7262C186.938 15.5619 186.918 15.3887 186.842 15.2377C186.766 15.0868 186.639 14.9678 186.483 14.9021C186.327 14.8364 186.153 14.8283 185.991 14.8793C185.83 14.9303 185.692 15.0369 185.602 15.1802C179.453 24.7819 174.764 35.2431 171.689 46.2213C171.647 46.4002 171.675 46.5887 171.768 46.7471C171.862 46.9055 172.013 47.0214 172.191 47.0702C172.368 47.1191 172.558 47.0972 172.719 47.0091C172.881 46.921 173.002 46.7736 173.057 46.598C176.1 35.739 180.741 25.3919 186.827 15.8954L185.531 15.3495L185.226 16.4759C185.184 16.6547 185.212 16.8432 185.305 17.0016C185.399 17.1599 185.55 17.2758 185.728 17.3246C185.905 17.3735 186.095 17.3516 186.256 17.2635C186.418 17.1754 186.539 17.0281 186.594 16.8525H186.594Z" fill="white"/>
<path d="M185.721 25.4952C184.22 27.8997 182.963 30.4488 181.972 33.1042C181.651 33.9591 183.021 34.3283 183.339 33.4809C184.294 30.9427 185.503 28.5069 186.946 26.2104C187.431 25.4351 186.205 24.7231 185.721 25.4952Z" fill="white"/>
<path d="M160.14 12.6396C157.472 13.3342 154.34 12.937 151.816 14.191C149.3 15.441 147.976 18.285 146.929 20.7287C144.175 27.1567 143.746 34.2602 143.355 41.1528C143.304 42.0639 144.722 42.0609 144.773 41.1528C145.102 35.3537 145.441 29.4502 147.254 23.8886C148.313 20.6383 149.871 16.3181 153.44 15.0946C155.652 14.3364 158.231 14.6012 160.517 14.006C160.693 13.9511 160.84 13.8302 160.929 13.6688C161.017 13.5074 161.039 13.318 160.99 13.1407C160.941 12.9634 160.825 12.8121 160.666 12.7186C160.508 12.6251 160.319 12.5968 160.14 12.6396V12.6396Z" fill="white"/>
<path d="M143.291 46.725C143.05 47.4619 143.101 48.2634 143.435 48.9634C143.769 49.6634 144.359 50.2082 145.084 50.4847C146.941 51.2659 148.877 50.4531 150.576 49.6646C151.402 49.2809 150.683 48.059 149.86 48.4411C148.863 49.0149 147.741 49.3375 146.591 49.381C145.363 49.3147 144.177 48.4416 144.659 47.1016C144.967 46.2418 143.598 45.8716 143.291 46.725V46.725Z" fill="white"/>
<path d="M218.571 59.5394C216.766 61.4771 214.551 62.9878 212.088 63.9613C209.624 64.9349 206.975 65.3468 204.332 65.167C203.42 65.1143 203.423 66.5315 204.332 66.584C207.161 66.7623 209.995 66.313 212.63 65.2684C215.265 64.2237 217.636 62.6095 219.573 60.5414C220.201 59.8797 219.2 58.876 218.571 59.5394Z" fill="white"/>
<path d="M241.684 56.6324C244.194 56.855 246.717 56.8884 249.231 56.7324C251.73 56.5574 254.602 55.3775 253.734 59.061C252.599 63.8737 250.858 68.6006 249.327 73.298C248.195 76.7744 253.669 78.2637 254.796 74.8047C256.045 70.9717 257.306 67.14 258.438 63.2702C259.28 60.3883 260.404 56.9953 259.448 53.9868C258.558 51.1887 256.471 50.3574 253.731 50.5224C249.627 50.7697 245.823 51.296 241.684 50.9646C238.045 50.6732 238.064 56.3426 241.684 56.6325V56.6324Z" fill="#ED968B"/>
<path d="M225.988 25.0377C227.529 24.8476 228.491 27.8513 228.747 28.8873C229.066 30.2152 229.088 31.5966 228.813 32.9342C228.643 33.8252 230.009 34.2069 230.181 33.3108C230.626 31.1707 230.416 28.9461 229.578 26.9271C228.956 25.4606 227.856 23.3904 225.988 23.6207C225.094 23.7309 225.083 25.1493 225.988 25.0377Z" fill="white"/>
<path d="M170.428 18.6601C173.467 16.8648 176.881 16.3001 180.321 15.7805C181.22 15.6447 180.838 14.2791 179.944 14.4142C176.383 14.952 172.852 15.5822 169.712 17.4366C169.557 17.5347 169.446 17.6894 169.402 17.868C169.358 18.0466 169.386 18.2351 169.479 18.3939C169.572 18.5526 169.723 18.669 169.9 18.7187C170.077 18.7684 170.266 18.7474 170.428 18.6601V18.6601Z" fill="white"/>
<path d="M212.662 29.2969C208.02 37.2649 200.933 43.4268 196.376 51.455C196.289 51.6168 196.268 51.8062 196.317 51.9833C196.367 52.1603 196.484 52.3111 196.642 52.4039C196.801 52.4967 196.99 52.5242 197.169 52.4806C197.347 52.437 197.502 52.3257 197.6 52.1702C202.156 44.1455 209.244 37.9811 213.887 30.0121C213.974 29.8503 213.995 29.6609 213.946 29.4838C213.896 29.3068 213.779 29.156 213.62 29.0632C213.462 28.9704 213.273 28.9429 213.094 28.9865C212.915 29.0301 212.761 29.1414 212.662 29.2969Z" fill="white"/>
<path d="M220.585 42.5577C219.028 44.0075 217.747 45.7273 216.805 47.6339C216.401 48.4486 217.624 49.1674 218.029 48.349C218.914 46.5496 220.12 44.9266 221.588 43.5596C222.256 42.9359 221.252 41.9355 220.585 42.5577Z" fill="white"/>
<path d="M269.546 47.7602C270.221 47.6037 270.918 47.5724 271.605 47.668C271.792 47.6671 271.972 47.5921 272.105 47.4595C272.238 47.3268 272.313 47.1472 272.314 46.9595C272.309 46.7731 272.233 46.5955 272.101 46.4636C271.969 46.3317 271.791 46.2556 271.605 46.2511C270.791 46.15 269.965 46.1984 269.169 46.3939C268.281 46.6045 268.657 47.9712 269.546 47.7602Z" fill="white"/>
<path d="M186.073 106.898C195.24 109.721 206.274 108.693 215.646 107.392C223.809 106.259 231.578 103.517 237.768 97.9494C238.448 97.338 237.442 96.3385 236.765 96.9474C230.018 103.017 221.349 105.453 212.485 106.351C204.112 107.199 194.581 108.036 186.45 105.531C185.576 105.262 185.202 106.63 186.073 106.898Z" fill="#4D505C"/>
<path d="M279.612 38.014C282.273 44.195 283.898 50.7716 284.421 57.4799C284.493 58.3828 285.912 58.3906 285.839 57.4799C285.291 50.5241 283.601 43.7058 280.837 37.2988C280.478 36.4632 279.256 37.1842 279.612 38.0139L279.612 38.014Z" fill="#282C3F"/>
<path d="M285.235 71.4407C285.903 81.6359 291.05 90.0097 296.107 98.6024C302.132 108.841 306.444 119.936 310.407 131.107C314.413 142.4 314.397 154.707 315.328 166.555C316.281 178.696 316.627 190.847 313.823 202.787C313.614 203.674 314.981 204.052 315.19 203.163C317.839 191.883 317.754 180.397 316.924 168.901C316.124 157.818 316.318 145.726 313.181 135.009C310.065 124.489 305.989 114.278 301.004 104.504C295.496 93.699 287.477 84.0109 286.653 71.4407C286.594 70.5354 285.175 70.5288 285.235 71.4407H285.235Z" fill="#282C3F"/>
<path d="M193.008 267.387C204.066 272.362 217.288 270.896 229.083 270.462C243.458 269.906 257.735 267.836 271.676 264.288C271.851 264.233 271.999 264.112 272.087 263.951C272.175 263.789 272.197 263.6 272.148 263.422C272.099 263.245 271.983 263.094 271.825 263C271.666 262.907 271.478 262.879 271.299 262.921C257.997 266.312 244.385 268.342 230.672 268.98C218.794 269.507 204.844 271.166 193.724 266.164C192.898 265.792 192.176 267.013 193.008 267.387Z" fill="#282C3F"/>
<path d="M197.883 112.376C202.51 117.133 206.88 122.132 210.975 127.353C211.537 128.07 212.534 127.061 211.977 126.351C207.883 121.13 203.513 116.131 198.886 111.374C198.249 110.719 197.247 111.721 197.883 112.376V112.376Z" fill="#4D505C"/>
<path d="M190.947 169.824C190.545 187.125 195.318 204.152 204.656 218.726C208.413 224.493 213.224 230.944 219.224 234.516C227.257 239.296 236.509 242.958 245.404 245.792C255.022 248.855 265.122 250.64 275.237 249.956C285.913 249.234 296.228 246.168 306.619 243.839C314.576 242.009 322.855 242.106 330.767 244.12C336.053 245.388 340.882 246.848 345.645 249.547C349.71 251.94 354.083 253.768 358.643 254.981C368.107 257.373 377.796 256.753 387.409 255.827C396.29 254.972 405.305 253.973 413.978 251.819C414.101 251.781 414.205 251.696 414.267 251.582C414.328 251.469 414.344 251.336 414.309 251.212C414.275 251.087 414.194 250.981 414.083 250.915C413.971 250.85 413.839 250.83 413.713 250.86C406.085 252.754 398.203 253.703 390.398 254.53C382.502 255.367 374.445 256.209 366.516 255.368C360.906 254.83 355.43 253.335 350.325 250.949C346.41 249.065 342.871 246.602 338.721 245.213C331.059 242.649 322.87 240.884 314.785 241.569C307.096 242.22 299.678 244.526 292.168 246.224C281.335 248.672 270.609 249.945 259.566 248.193C249.135 246.538 239.128 242.874 229.55 238.512C226.064 237.07 222.683 235.385 219.431 233.472C216.029 231.3 213.169 228.139 210.583 225.066C197.834 209.92 191.521 189.472 191.943 169.824C191.939 169.695 191.884 169.573 191.792 169.484C191.699 169.394 191.575 169.344 191.445 169.344C191.316 169.344 191.192 169.394 191.099 169.484C191.006 169.573 190.952 169.695 190.947 169.824L190.947 169.824Z" fill="#282C3F"/>
<path d="M281.239 79.4518C277.19 82.454 272.76 84.9055 268.065 86.7421C267.203 87.0787 267.578 88.4846 268.452 88.1434C273.268 86.2732 277.815 83.7724 281.973 80.7067C282.718 80.1569 281.993 78.895 281.239 79.4518Z" fill="#626A8E"/>
<path d="M280.824 84.8382C279.465 85.7392 278.041 86.54 276.565 87.2343C275.719 87.6325 276.457 88.8858 277.299 88.4892C278.775 87.7949 280.199 86.9941 281.558 86.0931C282.335 85.5787 281.607 84.3195 280.824 84.8382Z" fill="#626A8E"/>
<path d="M178.173 92.8976C178.064 92.9151 181.035 92.4205 181.197 92.6635L180.871 94.467C180.325 94.7413 179.726 94.898 179.115 94.9269C177.955 95.0934 176.733 94.8039 175.593 95.0125C174.374 95.2355 173.381 96.0123 173.834 97.3609C174.396 99.0314 176.585 100.461 178.016 101.31C180.09 102.446 182.275 103.367 184.537 104.057C185.145 104.265 185.406 103.304 184.802 103.097C182.039 102.151 179.197 101.174 176.893 99.3232C175.828 98.4676 175.285 98.3338 175.934 96.9791C176.55 95.6921 176.627 96.0276 177.801 96.0108C178.805 96.0415 179.806 95.8979 180.761 95.5866C181.867 95.1681 183.428 94.0947 182.908 92.678C182.256 90.9013 179.236 91.7237 177.908 91.9379C177.277 92.0397 177.545 92.999 178.173 92.8977V92.8976Z" fill="#4D505C"/>
<path d="M170.53 45.5114C168.678 44.7818 166.19 47.172 166.447 48.5968C166.73 50.1721 170.507 51.3444 171.725 49.9902C172.691 48.9159 172.142 46.1463 170.53 45.5114Z" fill="#626A8E"/>
<path d="M200.717 58.4766C198.727 58.4735 197.285 61.6068 198.044 62.8396C198.884 64.2025 202.829 63.9148 203.467 62.2095C203.974 60.8566 202.45 58.4792 200.717 58.4766Z" fill="#626A8E"/>
<path d="M228.004 192.139C224.018 196.873 212.401 192.804 201.897 189.125C198.113 187.728 194.616 185.648 191.583 182.989C188.974 180.708 187.246 179.197 187.397 177.377C187.665 174.154 195.692 168.116 202.845 165.914C211.1 163.374 213.172 166.24 216.382 167.184C226.36 170.119 232.621 186.655 228.004 192.139Z" fill="#FFEDC0"/>
<path d="M187.109 177.543C190.865 181.981 196.795 190.015 203.554 187.607C204.407 187.303 204.039 185.934 203.177 186.241C197.23 188.359 191.467 180.505 188.112 176.541C187.522 175.843 186.523 176.85 187.109 177.543Z" fill="#282C3F"/>
<path d="M189.758 176.128C194.166 174.628 198.998 172.107 203.522 174.623C204.32 175.067 205.036 173.843 204.238 173.399C199.292 170.649 194.255 173.103 189.381 174.762C188.522 175.054 188.891 176.423 189.758 176.128V176.128Z" fill="#282C3F"/>
<path d="M190.068 179.81C194.406 178.451 198.379 178.894 202.698 180.075C202.877 180.118 203.065 180.09 203.224 179.996C203.382 179.903 203.498 179.752 203.547 179.574C203.596 179.397 203.574 179.208 203.486 179.046C203.398 178.885 203.25 178.764 203.075 178.709C198.526 177.465 194.251 177.015 189.691 178.444C188.823 178.716 189.193 180.084 190.068 179.81H190.068Z" fill="#282C3F"/>
<path d="M192.244 173.419C197.397 168.64 203.84 166.021 210.587 164.354C210.772 164.296 210.927 164.169 211.02 163.999C211.113 163.829 211.136 163.629 211.084 163.443C211.033 163.256 210.911 163.097 210.744 162.998C210.577 162.899 210.379 162.87 210.19 162.914C203.195 164.643 196.525 167.413 191.187 172.363C190.481 173.018 191.539 174.072 192.244 173.419L192.244 173.419Z" fill="#282C3F"/>
<path d="M233.643 199.203C258.808 206.122 296.042 191.134 304.148 164.914C310.342 144.879 299.135 119.565 284.267 117.147C279.682 116.402 272.758 117.497 269.162 121.775C262.869 129.261 272.316 139.056 266.271 150.657C262.909 156.709 257.296 161.193 250.647 163.136C238.282 166.536 223.431 158.018 210.99 164.503C206.332 166.931 203.269 173.51 203.454 179.24C203.792 189.72 216.983 194.623 233.643 199.203Z" fill="#7685BD"/>
<path d="M210.654 162.781C205.298 166.834 203.264 174.152 203.493 180.646C203.684 186.075 206.452 188.996 211.003 191.656C216.979 195.148 223.776 197.367 230.41 199.223C235.055 200.523 240.292 202.232 245.18 202.149C245.364 202.143 245.538 202.066 245.666 201.933C245.794 201.801 245.865 201.625 245.865 201.441C245.865 201.257 245.794 201.081 245.666 200.948C245.538 200.816 245.364 200.739 245.18 200.732C241.391 200.796 237.377 199.576 233.743 198.649C227.73 197.187 221.857 195.2 216.191 192.712C212.206 190.905 206.591 188.437 205.31 183.836C203.517 177.393 206.008 168.061 211.37 164.005C212.088 163.461 211.382 162.23 210.654 162.781L210.654 162.781Z" fill="#282C3F"/>
<path d="M211.16 164.085C223.514 160.394 236.193 163.089 248.846 162.559C249.755 162.521 249.76 161.104 248.846 161.142C236.059 161.678 223.269 158.988 210.783 162.719C210.607 162.774 210.46 162.895 210.371 163.056C210.283 163.218 210.261 163.407 210.31 163.584C210.359 163.762 210.475 163.913 210.634 164.006C210.792 164.1 210.981 164.128 211.16 164.085Z" fill="#282C3F"/>
<path d="M187.609 177.525L192.23 173.411C192.912 172.803 191.907 171.804 191.227 172.409L186.607 176.523C185.924 177.131 186.93 178.13 187.609 177.525Z" fill="#282C3F"/>
<path d="M201.039 8.72819C213.37 -0.0196096 230.549 1.57579 244.326 5.60382C251.681 7.75414 259.097 10.8952 264.754 16.1852C270.035 21.123 273.86 27.3356 277.45 33.5464C277.553 33.7102 277.716 33.8274 277.904 33.8733C278.093 33.9192 278.292 33.8902 278.459 33.7925C278.626 33.6947 278.749 33.5359 278.801 33.3494C278.854 33.1629 278.832 32.9633 278.74 32.7929C274.988 26.301 270.947 19.7594 265.336 14.685C259.579 9.47866 252.104 6.32204 244.724 4.1642C230.569 0.0257088 212.939 -1.53737 200.285 7.43907C199.508 7.9907 200.253 9.28596 201.039 8.72819Z" fill="#282C3F"/>
<path d="M399.171 24.955C393.775 17.9717 386.349 12.8281 377.912 10.2297C374.549 9.23504 361.957 5.54777 350.054 12.0612C343.35 15.73 339.496 21.5348 337.225 24.955C333.871 30.0063 330.356 35.3003 330.334 42.3177C330.305 51.0793 335.737 57.4902 342.87 65.9075C346.237 69.8823 348.835 72.7501 353.06 75.5046C355.283 76.9541 370.034 86.5715 386.635 80.2665C399.204 75.4934 408.473 63.2506 409.068 50.0833C409.617 37.9387 402.596 29.2116 399.171 24.955Z" fill="#E0E6FF"/>
<path d="M358.276 30.7827C358.025 28.5399 366.22 25.3804 374.058 27.2555C375.136 27.5133 383.142 29.536 385.423 35.3503C387.327 40.2033 384.199 45.0381 380.083 46.7303C376.341 48.2687 373.264 46.6015 370.879 48.298C367.8 50.4877 371.23 56.5111 368.528 58.8278C366.797 60.313 364.477 59.2594 362.838 57.8399C362.418 57.4758 361.652 56.5938 363.639 49.3112C364.635 45.6606 365.154 43.8203 366.185 43.0834C369.289 40.8655 373.573 42.8315 375.225 40.6997C376.287 39.3279 375.77 36.8914 374.196 35.6738C372.158 34.098 369.658 35.5752 364.771 34.3302C362.667 33.7941 358.448 32.3274 358.276 30.7827Z" fill="#7685BD"/>
<path d="M368.387 63.6757C366.828 62.4931 364.463 62.7414 363.709 64.1748C363.549 64.4278 363.457 64.7171 363.44 65.0156C363.423 65.314 363.483 65.6119 363.613 65.8811C364.603 67.6585 369.79 67.8191 370.399 66.5919C370.705 65.9766 369.939 64.8524 368.387 63.6757Z" fill="#7685BD"/>
<path d="M349.174 60.2654C346.25 61.4633 349.635 70.034 344.116 75.2105C340.984 78.1481 336.799 78.2903 336.931 79.3863C337.06 80.4534 341.106 80.9841 344.409 80.9248C347.343 80.8721 358.553 80.6707 360.537 74.6244C362.692 68.0573 352.557 58.8793 349.174 60.2654Z" fill="#E0E6FF"/>
<path d="M346.239 69.9469C334.527 59.9966 325.151 42.9684 335.667 28.6802C336.086 28.1099 335.133 27.5612 334.717 28.1256C323.935 42.7763 333.396 60.4738 345.461 70.724C345.997 71.1796 346.779 70.4059 346.239 69.9469Z" fill="#626A8E"/>
<path d="M346.019 72.6358C343.425 75.3392 340.343 77.5266 336.934 79.0822C336.291 79.3768 336.849 80.3243 337.489 80.031C340.981 78.4319 344.14 76.1862 346.796 73.4129C347.287 72.9027 346.51 72.1246 346.019 72.6358V72.6358Z" fill="#626A8E"/>
<path d="M336.788 80.0996C344.808 81.9271 350.975 82.97 358.542 79.0553C359.17 78.73 358.615 77.7814 357.987 78.1064C350.723 81.8647 344.734 80.7839 337.08 79.0399C336.391 78.8829 336.097 79.9422 336.788 80.0996Z" fill="#626A8E"/>
<path d="M360.691 81.335C365.72 82.9865 371.529 82.6878 376.741 82.2694C382.041 81.8438 387.35 80.6738 391.899 77.8153C400.201 72.5997 407.208 62.7343 407.471 52.7621C407.466 52.6197 407.406 52.4848 407.303 52.3858C407.201 52.2868 407.064 52.2314 406.921 52.2314C406.778 52.2314 406.641 52.2868 406.539 52.3858C406.436 52.4848 406.376 52.6197 406.371 52.7621C406.112 62.6095 398.753 72.9022 390.178 77.5556C385.613 80.0328 380.502 80.9687 375.361 81.2623C370.663 81.5305 365.49 81.7553 360.984 80.2753C360.31 80.054 360.021 81.1148 360.691 81.335Z" fill="#626A8E"/>
<path d="M341.164 20.8562C344.599 14.0712 351.662 11.5836 358.712 10.2725C366.639 8.79805 374.372 8.33158 381.849 11.8021C393.816 17.3564 403.644 26.3235 406.999 39.3867C407.041 39.5228 407.135 39.637 407.26 39.7052C407.386 39.7734 407.532 39.7904 407.67 39.7525C407.807 39.7146 407.925 39.6248 407.997 39.5021C408.07 39.3794 408.092 39.2333 408.059 39.0946C404.475 25.1358 393.162 14.7663 379.845 9.77054C372.496 7.01344 364.517 7.92284 356.99 9.48763C350.122 10.9153 343.525 13.7629 340.214 20.3015C339.896 20.9311 340.844 21.488 341.164 20.8562H341.164Z" fill="#626A8E"/>
<path d="M7.79873 214.078C20.3685 217.644 31.7747 224.184 44.4364 227.667C50.5246 229.342 56.5144 229.831 62.7657 230.538C68.9065 231.233 75.1187 231.924 81.2561 230.796C89.6457 229.254 97.7458 225.466 105.021 221.114C112.697 216.521 120.396 210.198 125.763 203.028C129.32 198.053 131.806 192.394 133.062 186.41C133.725 183.486 134.081 180.501 134.125 177.504C134.178 173.029 133.364 168.705 134.598 164.307C134.628 164.181 134.608 164.049 134.542 163.938C134.476 163.826 134.37 163.745 134.245 163.711C134.121 163.676 133.988 163.692 133.874 163.754C133.761 163.815 133.676 163.919 133.637 164.042C131.632 171.193 133.745 178.808 132.102 186.146C130.619 193.244 127.341 199.845 122.581 205.318C115.227 213.508 106.26 219.524 96.548 224.49C90.245 227.713 82.9099 230.092 75.8189 230.372C67.8785 230.686 59.2389 229.606 51.4126 228.3C36.016 225.732 22.8716 217.319 8.06351 213.118C7.93786 213.088 7.80547 213.108 7.69427 213.174C7.58306 213.239 7.50172 213.346 7.46739 213.47C7.43306 213.595 7.44841 213.727 7.51023 213.841C7.57204 213.954 7.67548 214.039 7.79874 214.078H7.79873Z" fill="#282C3F"/>
<path d="M4.35169 224.476C11.7501 224.61 19.0523 226.177 25.8543 229.088C31.8986 231.556 38.1814 233.395 44.6032 234.574C51.044 235.807 57.565 236.562 64.0721 237.344C70.2552 238.087 76.3273 238.999 82.5717 238.547C93.6276 237.791 104.288 234.132 113.476 227.94C116.862 225.537 119.955 222.746 122.691 219.624C126.167 215.778 129.961 212.158 133.094 208.019C137.195 202.6 139.097 196.127 140.818 189.639C141.785 185.993 143.097 182.443 144.016 178.788C144.835 174.959 145.242 171.053 145.232 167.137C145.254 166.497 144.258 166.498 144.236 167.137C144.234 170.713 143.902 174.281 143.242 177.795C142.479 181.224 141.15 184.514 140.233 187.904C138.572 194.046 137.076 200.53 133.428 205.853C130.321 210.388 126.264 214.188 122.591 218.251C119.868 221.401 116.808 224.244 113.467 226.73C92.8979 241.43 67.4544 238.053 44.135 233.471C37.1006 231.985 30.2251 229.828 23.6033 227.029C17.4556 224.686 10.9315 223.483 4.35172 223.48C4.22266 223.485 4.1004 223.539 4.01069 223.632C3.92099 223.725 3.87085 223.849 3.87085 223.978C3.87085 224.107 3.92099 224.231 4.01069 224.324C4.1004 224.417 4.22266 224.471 4.35172 224.476H4.35169Z" fill="#282C3F"/>
<path d="M201.138 187.329C201.062 202.698 212.003 217.124 223.144 226.855C227.725 230.857 232.56 232.686 238.119 234.789C245.839 237.711 253.35 240.254 261.636 240.898C271.139 241.636 280.556 240.581 289.902 238.899C293.905 238.179 297.882 237.327 301.808 236.26C306.635 234.949 311.154 233.133 316.232 233.055C323.884 232.937 331.2 235.257 338.359 237.684C345.645 240.155 351.891 244.415 359.482 246.086C379.516 250.495 400.271 246.8 419.462 240.477C420.068 240.277 419.809 239.315 419.198 239.517C402.02 245.177 383.726 248.735 365.631 246.173C361.215 245.653 356.877 244.609 352.708 243.063C348.849 241.523 345.399 239.151 341.487 237.707C336.531 235.795 331.438 234.259 326.251 233.113C319.221 231.636 311.925 232.038 305.1 234.278C296.593 236.826 287.871 238.591 279.043 239.551C269.893 240.585 260.209 240.58 251.253 238.248C245.399 236.723 239.811 234.314 234.104 232.354C225.72 229.475 219.506 222.381 214.105 215.654C207.492 207.417 202.08 198.206 202.134 187.329C202.13 187.2 202.075 187.078 201.982 186.988C201.889 186.898 201.765 186.848 201.636 186.848C201.507 186.848 201.383 186.898 201.29 186.988C201.197 187.078 201.143 187.2 201.138 187.329L201.138 187.329Z" fill="#282C3F"/>
</svg>
