<svg xmlns="http://www.w3.org/2000/svg" width="251" height="250" viewBox="0 0 251 250" fill="none"><path d="M181.711 75.803c-5.273 3.128-10.293 6.89-13.879 11.864-3.586 4.973-5.611 11.3-4.486 17.329.112.606.281 1.24.745 1.649.619.535 1.533.465 2.334.366 12.361-1.677 24.145-7.383 33.131-16.048 5.4-5.185 10.547-11.806 17.986-12.666 3.445-.409 6.933.55 10.04 2.072 1.604.774 3.15 1.732 4.317 3.07 2.672 3.058 2.897 7.538 2.503 11.596-.435 4.452-1.434 8.891-3.009 13.075-1.392 3.705-4.542 6.551-7.2 9.468-5.99 6.593-12.515 12.723-19.673 18.034-10.083 7.467-19.687 15.16-30.866 21.091-5.724 3.029-10.983 5.326-15.68 9.948-4.486 4.409-8.142 9.679-10.743 15.413-2.138 4.72-3.389 9.482-5.822 14.118-2.573 4.888-5.471 9.622-8.775 14.046-4.05 5.439-7.945 8.581-14.315 11.145-9.689 3.903-20.25 4.959-30.67 5.607-7.692.479-15.412.747-23.104.282-1.997-.113-6.413-.549-6.89-3.128-.535-2.902 3.43-4.241 5.455-4.663 12.572-2.621 25.368-6.326 35.367-14.399 2.025-1.635 4.092-4.016 3.375-6.51-5.26-.239-10.28 1.945-15.342 3.382a55.806 55.806 0 0 1-17.255 2.085c-1.884-.071-4.33-.803-4.33-2.691.014-1.564 1.743-2.424 3.163-3.072 4.866-2.183 8.972-5.706 13.008-9.186 3.43-2.958 7.03-6.171 8.268-10.539.169-.591.282-1.253 0-1.789-.618-1.211-2.404-.887-3.656-.366a187.252 187.252 0 0 0-18.646 8.946c-7.65 4.213-15.694 9.116-24.384 8.398-1.716-.141-3.895-1.155-3.558-2.846.183-.944 1.11-1.536 1.94-2.015 22.205-12.934 41.217-32.631 46.293-57.85 4.149-20.613-1.42-41.986.465-62.922.28-3.17.745-6.354 1.828-9.355.745-2.072 1.771-4.044 2.883-5.946 7.354-12.709 18.182-23.388 30.964-30.588 11.798-6.622 24.835-7.143 37.336-12.286 7.959-3.268 16.045-7.115 24.651-6.946.591.014 1.209.057 1.673.409.408.324.619.831.788 1.338 1.322 3.903 1.308 8.13 2.32 12.131.099.409.253.86.619 1.057.365.197.83.084 1.223-.042l10.125-3.213c1.055-.338 2.194-.662 3.22-.282 1.983.733 2.208 3.424 2.011 5.538-1.926 21.12-7.523 45.085-25.748 55.891Z" fill="#a4aaae"/><path d="M118.165 39.622c-9.704 6.214-18.31 14.132-25.34 23.262a127.444 127.444 0 0 1 14.202 5.114A40.78 40.78 0 0 1 93.33 77c-5.68 2.254-9.534 5.086-12.965 10.158 7.312 1.972 14.892-1.17 22.022-3.733a152.986 152.986 0 0 1 22.049-6.101c4.57-.902 9.422-1.69 12.993-4.692.282-.24.577-.55.563-.915-.014-.31-.253-.564-.478-.776-3.319-3.057-8.044-4.325-11.123-7.636-.338-.366-.675-.845-.548-1.324.098-.38.463-.634.801-.846 3.361-2.127 6.708-4.254 10.068-6.382a602.042 602.042 0 0 0-13.119-13.709c-1.351-1.366-3.812-2.465-5.428-1.423ZM165.793 91.104c-2.123 5.129-2.588 10.849-2.053 16.386a48.489 48.489 0 0 0 13.275-3.325c.688-.282 1.42-.62 1.8-1.268.252-.437.309-.973.337-1.48.309-5.988-2.067-12.074-.535-17.865.352-1.324 1.463-4.762-.829-5.143-1.237-.21-3.235 2.03-4.149 2.72-3.487 2.649-6.173 5.917-7.846 9.975ZM171.558 156.534c-2.517 1.395-5.034 2.804-7.284 4.594-3.052 2.437-5.512 5.537-7.776 8.735-6.328 8.961-11.222 18.837-16.087 28.671-.971 1.945-1.927 3.889-2.897 5.834-1.196 2.408-2.405 4.874-2.714 7.551-.113.986-.029 2.142.773 2.733.535.395 1.266.423 1.926.381 2.799-.141 5.513-.972 8.157-1.902 19.237-6.791 36.154-19.993 47.417-37.027 1.21-1.831 2.377-3.719 3.15-5.776.69-1.846 1.069-3.776 1.407-5.721a170.7 170.7 0 0 0 2.067-16.258c.141-1.762.267-5.861-2.123-6.157-2.011-.254-6.792 3.635-8.607 4.635a6489.908 6489.908 0 0 1-17.409 9.707ZM58.92 140.29c-3.516 1.662-7.27 3.508-9.183 6.904-1.997 3.55-1.463 8.171.689 11.637 2.152 3.466 5.681 5.889 9.436 7.467 1.11.465 2.292.874 3.487.733 1.28-.141 2.405-.888 3.432-1.677 4.809-3.747 8.183-9.003 11.46-14.131 3.98-6.213 8.058-12.737 8.86-20.077.787-7.284-7.37-.648-9.999.592a9945.81 9945.81 0 0 0-18.182 8.552Z" fill="#a4aaae"/><path d="M136.515 18.996c6.089-3.353 12.614-5.847 19.111-8.327 8.845-3.367 17.732-6.748 27.041-8.425.76-.14 1.561-.254 2.264.042.732.296 1.224.987 1.646 1.649a22.224 22.224 0 0 1 3.276 13.13c-.028.452-.084.93-.379 1.269-.197.24-.493.366-.774.493-2.953 1.338-6.047 2.438-8.873 4.03-2.841 1.592-5.47 3.761-6.904 6.678-2.658 5.396-.788 12.173-3.305 17.64-1.435 3.127-4.149 5.452-6.891 7.523-4.106 3.114-8.971 6.016-14.076 5.312-2.953-.409-5.611-1.987-8.156-3.55-1.392-.846-2.771-1.677-4.163-2.523-6.244-3.79-12.979-8.2-15.046-15.216-1.561-5.326 0-8.003 3.782-11.581 3.432-3.213 7.341-5.89 11.447-8.144Z" fill="#a4aaae"/><path d="M199.416 58.939c.478.944 1.364 1.846 2.419 1.718.45-.056.858-.28 1.251-.52 1.519-.902 3.094-1.846 3.994-3.368.844-1.409.984-3.114 1.097-4.734.239-3.423.323-7.2-1.786-9.905-.239-.295-.534-.605-.914-.648-3.009-.38-4.795 4.241-5.316 6.383-.886 3.578-2.587 7.467-.745 11.074Z" fill="#F6E5C1"/><path d="M220.565 71.295c-2.798 1.268-5.892 3.621-5.372 6.664 3.699-.183 7.454-.154 10.997.944 3.53 1.1 6.834 3.41 8.381 6.777 2.419 5.255.085 11.483 1.125 17.161 4.95-2.663 8.93-7.087 11.067-12.286.9-2.212 1.491-4.664.97-6.988-.435-1.93-1.603-3.677-1.842-5.636-.253-2.1.577-4.142 1.308-6.129.324-.86.591-1.944-.028-2.635-.619-.69-1.701-.549-2.602-.394-4.289.761-8.423.493-12.684-.169-3.796-.578-7.818 1.113-11.32 2.691ZM40.568 149.138c-.127.662-.169 1.352-.407 1.986-1.027 2.649-4.88 3.001-6.399 5.396-.337.536-.548 1.184-.45 1.818.183 1.24 1.42 2.043 2.616 2.452 1.195.408 2.489.619 3.459 1.422 1.547 1.282 1.73 3.664 3.122 5.129.942 1 2.32 1.437 3.642 1.761a38.376 38.376 0 0 0 8.86 1.127c.829.014 1.757-.056 2.306-.676.688-.775.365-2.071-.352-2.818-.717-.747-1.716-1.141-2.63-1.648a11.191 11.191 0 0 1-5.02-5.848c-.956-2.62-.858-5.494-.155-8.171.478-1.804 3.403-5.833 2.082-7.538-1.182-1.522-4.781-.521-6.16.113-2.208 1.029-4.036 3.043-4.514 5.495ZM25.887 210.694c.155.986 1.294 1.422 2.25 1.676a107.61 107.61 0 0 0 7.608 1.649c1.237.211 2.489.408 3.727.211 1.237-.197 2.46-.86 3.037-1.958.323-.621.436-1.339.464-2.058.042-.972-.07-1.972-.535-2.831-.872-1.593-2.812-2.297-4.626-2.339-1.8-.028-3.572.465-5.372.704-2.306.31-7.115 1.494-6.553 4.946Z" fill="#a4aaae"/><path d="M151.745 39.27a9.743 9.743 0 0 1 8.071.225 45.983 45.983 0 0 0 3.403-4.015c.085-.113 1.351-1.916 1.252-1.902-1.181.099-2.362.38-3.473.803-.647.24-1.421-.409-2.039-.634-.83-.31-1.688-.521-2.56-.634-1.8-.225-4.007-.014-5.653.76-2.025.959-3.811 2.466-5.147 4.242-1.968 2.606-3.051 5.847-2.489 9.087.043.226.141.493.366.507.141 0 .253-.084.351-.183 1.505-1.366 2.546-3.198 3.685-4.86a9.952 9.952 0 0 1 4.233-3.396Z" fill="#1D445C"/><path opacity=".5" d="M132.213 48.4c.393.422.857.873 1.392 1.423 1.87 1.888 3.417 4.071 5.386 5.846 1.293 1.156 3.037 2.452 4.823 2.636.59.056 4.753.182 4.866-.142 2.77-8.72 5.132-17.484 7.607-26.318.675-2.41 7.945-22.585 6.159-23.149-.449-.14-.942.057-1.378.24-4.921 2.155-9.829 4.311-14.751 6.467-3.375 1.48-4.162 3.48-5.597 6.678a456.667 456.667 0 0 0-5.878 13.78c-1.125 2.76-2.193 5.55-3.305 8.326-.843 2.029-.421 3.001.676 4.213ZM157.693 55.684c3.755-1.465 7.805-3.17 9.76-6.706 1.054-1.916 1.364-4.128 1.645-6.298l5.105-38.604c.055-.465-3.516.901-3.868 1.282-.928.986-.942 2.24-1.307 3.522-1.055 3.72-2.335 7.383-3.403 11.102a307.68 307.68 0 0 0-5.583 22.754 366.343 366.343 0 0 0-2.349 12.948Z" fill="#aeb3b7"/><path d="M199.289 106.546c-9.028 4.423-17.564 6.157-27.45 6.368-7.762.169-15.96-.563-22.358-4.973a22.01 22.01 0 0 1-4.135-3.692c3.094.381 6.174 2.226 9.183 3.1 3.094.901 6.3 1.381 9.52 1.056 6.736-.676 13.218-3.113 19.139-6.311 6.173-3.325 11.854-7.454 17.549-11.54 1.814-1.296 3.488-2.69 4.852-4.41 1.533-1.93 3.234-3.677 5.484-4.748 2.883-1.366 6.202-1.45 9.394-1.324 3.15.127 6.398.48 9.112 2.085 4.416 2.607 6.399 8.567 4.542 13.272-1.238-2.606-4.148-4.212-7.031-4.184-4.5.042-9.281 4.212-12.881 6.551-4.824 3.142-9.731 6.157-14.892 8.693.014.042-.014.042-.028.057ZM179.096 24.434c-6.005 3.621-7.847 9.976-7.636 16.57.225 6.804 5.189 11.398 11.77 13.145 19.828 5.255 24.131-19.697 24.82-33.998.056-1.296.028-2.761-.9-3.677-.647-.634-1.575-.845-2.475-.958-5.681-.704-11.883.958-16.594 4.17-2.84 1.93-6.117 3.015-8.985 4.748ZM86.974 69.492c-.45 3.212-.618 6.622.773 9.552a159.492 159.492 0 0 0 17.916-10.961c-3.544-.987-7.087-1.972-10.631-2.973-.535-.141-1.111-.324-1.392-.803-.296-.48-.183-1.113-.015-1.649.816-2.606 2.686-4.733 4.599-6.692a93.076 93.076 0 0 1 18.604-14.737c1.364-.818 2.827-1.705 3.432-3.156.942-2.24-.464-5.044.745-7.143.801-1.395 2.447-1.973 3.867-2.748 2.784-1.507 3.459-4.79-.043-5.96-2.755-.915-4.893 1.438-7.059 2.818-5.343 3.41-10.321 6.82-14.695 11.469-8.521 9.031-14.371 20.655-16.1 32.983ZM94.92 86.891c-6.44.423-8.24 1.184-7.762 7.623.548 7.509 1.265 15.075 1.321 22.613.07 9.214-1.097 18.668-5.358 26.84-3.177 6.086-7.86 11.271-11.98 16.71-3.98 5.255-7.777 10.313-12.474 15.019 2.995-3.001 9.661-4.227 13.444-6.383a76.757 76.757 0 0 0 13.036-9.355c14.976-13.3 26.858-30.644 30.275-50.693 1.631-9.566 1.435-19.344 1.238-29.037-6.834 2.296-14.527 6.198-21.74 6.663Z" fill="#a4aaae"/><path d="M43.114 204.283c-.197-.127-.408-.268-.605-.353-1.434-.746-2.84-.648-4.5-.633-2.01.028-3.98.126-5.948.479-3.881.676-7.678 2.014-11.194 3.62-2.053.945-8.789 3.283-5.118 6.27 1.364 1.127 3.121 1.62 4.851 1.987 4.514 1 9.169 1.338 13.781 1.028 2.475-.169 4.458-.549 6.75-1.62.858-.409 1.73-.817 2.433-1.451 2.728-2.424 2.573-7.228-.45-9.327Zm-2.545 5.579c-1.618 2.466-6.68 1.733-9.057 1.508-.801-.085-1.645-.212-2.193-.803-.113-.127-.211-.296-.211-.451 0-.31.295-.508.576-.634a16.4 16.4 0 0 1 5.513-1.635c1.265-.127 3.501-.535 4.626.212.984.662 1.097 1.268.746 1.803Z" fill="#1d445c"/><path d="M185.1 49.02c1.055-.79 2.236-1.804 2.138-3.114-.127-1.578-2.138-2.437-3.516-2.029-1.35.395-2.756 1.973-3.67 2.973-4.599 5.044-9.183 10.102-13.781 15.146-.338.366-1.969 1.803-.563 1.747.971-.042 2.278-1.24 3.038-1.79 1.997-1.464 3.783-3.198 5.709-4.734a382.603 382.603 0 0 1 10.645-8.2ZM175.411 66.871c-.394.662-2.109 3.255-.14 1.846 1.504-1.099 2.531-2.635 3.712-4.044a126.214 126.214 0 0 1 3.853-4.41c1.238-1.352 2.644-2.522 3.867-3.902 1.069-1.212 3.53-3.945 1.772-5.608-.562-.535-1.772-.07-2.334.31-.999.676-1.393 1.775-2.082 2.72-.759 1.042-1.364 2.17-2.123 3.198a141.343 141.343 0 0 0-6.525 9.89Z" fill="#1D445C"/><path d="M248.746 78.001a3.756 3.756 0 0 0-.45-.676 25.708 25.708 0 0 0 1.448-4.945c.127-.648.436-2.17-.281-3.635-.633-1.254-1.913-2.17-3.403-2.466-1.055-.197-2.053-.084-2.967.085-.956.169-1.871.408-2.77.704-3.277-1.944-6.708-1.564-9.76-1.226l-.646.085a24.456 24.456 0 0 0-10.167 3.579c-3.98 2.466-7.524 6.086-10.561 10.764-3.122 2.07-5.948 4.691-8.606 7.129-1.533 1.423-2.982 2.761-4.43 3.973-3.375 2.762-6.426 5.241-9.815 7.312a40.731 40.731 0 0 1-4.486 2.438c-2.096-6.749-1.969-13.962.422-19.725 1.195-2.818 2.995-4.96 4.921-7.242a72.974 72.974 0 0 0 2.7-3.353c.605-.818 1.21-1.649 1.828-2.494 1.604-2.226 3.08-4.522 4.5-6.862.577-.957 1.603-1.915 2.461-.507.408.648.521 1.48 1.069 2.015.928.845 2.391.352 3.501-.24 2.461-1.338 4.852-3.198 5.822-5.86.717-1.987.535-4.2.338-6.312-.31-3.354-.619-6.693-.914-10.018-.211-2.226-.591-4.452-.352-6.678.225-2.339 1.097-4.664 1.561-6.974.112-.536.281-1.198.45-1.916.492-1.987.984-3.988 1.448-5.96.479-2.057 1.294-4.044 1.828-6.002.704-2.536 1.435-5.861-.112-8.214-1.449-2.198-4.641-2.973-6.75-1.339-.169.113-.295.24-.436.38-.548.578-.984 1.311-1.715 1.621-.591.268-1.252.211-1.913.183-1.617-.028-3.29.268-4.584 1.24-2.658 2.029-1.927 4.424-.169 6.453-.436.31-.844.592-1.195.747a19.9 19.9 0 0 1-2.911 1.211 859.818 859.818 0 0 0-2.236-7.312c-.745-2.395-1.547-6.622-4.092-7.693-.633-.267-1.35-.281-2.039-.267-9.028.084-17.55 3.607-25.706 7.171-1.856.803-3.684 1.564-5.47 2.325-3.122 1.31-6.23 2.62-9.295 4.057-1.266.592-2.405 1.381-3.741 1.733-1.364.367-2.784.48-4.162.818-1.378.352-2.742.83-4.135 1.169a59.695 59.695 0 0 0-6.946 2.085 63.02 63.02 0 0 0-12.769 6.41c-7.945 5.172-14.723 12.103-19.743 20.162a64.566 64.566 0 0 0-7.172 16.062c-.801 2.776-1.603 5.565-2.095 8.411-.507 2.917-.479 5.72-.296 8.665 0 .099.014.183-.014.282-.028.113-.098.211-.169.31-.843 1.155-2.094 1.86-3.135 2.846-2.841 2.663-5.935 5.002-8.325 8.115.014-.028 2.025.07 2.222.085l2.362.042h2.362l2.363-.042c.872-.028 1.73-.14 2.588-.211.168-.014.365-.014.492.112.098.099.112.24.14.367.296 2.254.999 4.494.999 6.818.028.353.084.705.098 1.057.197 1.677.338 3.382.422 5.073.042.436.085.887.099 1.324.084 1.451.126 2.902.14 4.381a80.086 80.086 0 0 1-.07 5.819 83.134 83.134 0 0 1-.802 8.75c-6.384 4.001-13.738 7.847-23.132 12.159a76.934 76.934 0 0 0-4.528 2.183 7.98 7.98 0 0 1-1.111.24c-1.04.212-2.081.381-3.094.521-4.71.747-9.562 1.536-13.88 5.228-2.573 2.184-4.176 4.973-4.5 7.847-.013.169 0 .324 0 .493a22.648 22.648 0 0 0-3.05 2.649c-.408.423-1.365 1.409-1.533 2.874-.141 1.297.351 2.635 1.364 3.593.689.648 1.462 1.029 2.193 1.353.69.295 1.364.521 2.068.718 1.448 2.79 3.993 4.072 6.243 5.171l.478.239c4.402 2.184 8.944 2.24 13.345 2.283.535 0 1.041.014 1.561.014a8.29 8.29 0 0 1-.351.338 107.338 107.338 0 0 1-16.622 12.131c-5.667 3.381-11.671 5.833-17.732 8.439-.492.212-1.027.479-1.21.986-.267.733.38 1.466 1.013 1.888 1.167.803 2.657 1.437 4.021 1.79 1.21.31 2.461.338 3.685.479 2.236.239 4.528.211 6.778.085 8.409-.494 16.931-3.255 24.51-6.89 1.857-.888 3.685-1.832 5.513-2.762 2.053-1.057 4.176-2.155 6.286-3.128.435-.211.984-.493 1.603-.802 1.617-.804 3.192-1.649 4.795-2.494.689-.353 1.336-.761 2.011-1.128.689-.38 1.645-1.113 2.432-1.169 1.07-.085-.084 2.437-.337 2.916-.548 1.071-1.364 1.973-2.222 2.818-.281.296-.576.578-.858.846-1.603 1.507-3.375 2.818-5.203 4.043a71.477 71.477 0 0 1-4.964 3.001c-1.518.846-2.882 1.761-4.316 2.663-1.913 1.198-13.318 5.467-10.843 8.736.83 1.099 2.785 1.549 4.022 1.831 5.737 1.339 11.77.324 17.423-.93 5.949-1.324 11.742-3.254 17.592-4.903.59-.169 1.407-.225 1.646.324 1.518 3.466-10.07 8.102-12.094 9.031-7.481 3.438-15.3 5.819-23.371 7.482-3.165.648-6.343 1.31-9.535 1.775-2.784.408-5.962.183-8.48 1.62-3.402 1.944.577 5.044 2.672 6.171 2.405 1.297 5.133 1.888 7.79 2.48 9.535 2.099 19.59 1.648 29.265.986 19.11-1.338 37.981-5.41 56.234-11.187a453.366 453.366 0 0 0 5.724-1.859c2.025-.691 4.12-1.367 6.159-2.17 6.553-2.536 12.558-5.692 18.028-9.44a83.509 83.509 0 0 0 6.019-4.536 66.023 66.023 0 0 0 3.627-3.213 76.935 76.935 0 0 0 4.135-4.199c7.116-7.791 12.642-17.033 16.411-27.53 2.756-7.706 3.402-14.878 2.235-24.656 6.145-4.621 12.01-9.637 17.536-15.09 5.372-5.325 11.405-11.327 15.215-19.133l.127.043c.211-.55.844-1.155 1.449-1.733.942-.902 1.912-1.761 2.854-2.607 4.289-3.874 8.719-7.875 10.673-14.399 1.168-3.846.956-7.636-.548-10.708Zm-26.423-4.353c2.489-1.55 5.301-2.536 8.142-2.86l.647-.085c.337-.028.689-.07 1.013-.113-.395.31-.746.648-1.112 1.015a45.727 45.727 0 0 1-2.362 2.198c-.268.197-.535.408-.802.606-.942.718-1.912 1.423-2.854 2.127-1.73-.352-3.516-.493-5.33-.31-.309.014-.59.07-.886.113a24.995 24.995 0 0 1 3.544-2.691ZM203.93 57.925c-.268.746-1.885 2.408-2.742 1.535-.198-.211-.296-.507-.38-.79-.394-1.31-1.069-2.69-.802-4.015.169-.789 1.237-4.297 2.151-4.212 1.534.127 2.166 6.34 1.773 7.482Zm2.84-8.243c.028.676.042 1.254-.366 1.832-.97 1.366-1.49-1.663-1.617-2.212-.351-1.466-.379-3.015.268-4.396.351-.79 1.026-.409 1.223.296.38 1.437.45 2.987.492 4.48Zm-70.621-25.769c6.37-4.283 12.924-7.03 19.884-9.947 1.815-.76 3.671-1.536 5.527-2.353 6.862-2.987 13.57-5.495 20.938-7.087.62-.127 1.252-.267 1.871-.098.956.281 1.35 1.662 1.744 2.493.534 1.156.689 2.452 1.04 3.678.647 2.099 1.547 4.086 1.913 6.255.014.099.028.198-.028.282a.402.402 0 0 1-.169.113c-1.477.634-2.967 1.296-4.444 1.93-.605.268-1.336.747-2.011.803-.548.028-1.153-.113-1.729-.098-3.994.098-6.061 2.705-8.213 5.621-2.446 3.269-2.84 7.284-3.122 11.23-.309 4.254-.323 7.621-3.388 11.045-2.405 2.705-5.625 4.55-8.832 6.214-2.896 1.521-5.962 2.958-9.238 2.986-5.443.1-9.028-4.325-12.755-7.594-2.827-2.48-5.133-5.635-7.622-8.481-1.645-1.874-4.514-4.453-4.57-7.144-.028-1.225.928-2.014 1.8-2.733 2.053-1.648 4.345-2.987 6.638-4.283 1.588-.874 3.247-1.803 4.766-2.832ZM92.529 57.91c1.884-4.72 4.654-9.37 7.705-13.47a60.374 60.374 0 0 1 11.25-11.552 61.794 61.794 0 0 1 6.708-4.551c1.701-.986 3.276-2.015 5.048-2.846.886-.409 1.786-.831 2.742-.916-2.573 1.804-5.188 3.565-7.691 5.439-.634.479-1.294.986-1.632 1.676-.337.761-.281 1.663 0 2.466.633 1.761 2.25 2.902.197 4.382-3.488 2.48-6.961 4.945-10.448 7.425-2.77 1.972-5.302 4.325-7.776 6.678-1.111 1.029-2.237 2.043-3.207 3.198-1.139 1.352-2.053 3.058-3.501 4.1.112-.803.323-1.31.604-2.029Zm-3.741 16.893c.028-.408.07-.831.112-1.24.085-.803.183-1.606.295-2.395.141-.986.254-1.973.408-2.945.029-.197.352-2.592.59-2.535.83.225 1.675.465 2.518.634 1.435.295 2.84.676 4.261 1.014 1.378.338 2.77.577 4.148.901.436.1.872.212 1.308.31.028 0-.576.395-.618.424-.324.168-.647.323-.971.478-.647.324-1.308.634-1.954.958-1.28.62-2.56 1.254-3.812 1.959-2.151 1.17-4.232 2.38-6.355 3.62.084-.07.055-1.042.07-1.183ZM85.82 85.187c-.338.028-.675.07-1.013.098-.183.015-.351.043-.534.057-.014 0-.338.014-.338-.014.31-.451.802-.733 1.238-1.071.38-.296.703-.662 1.054-.972 3.952-3.565 8.972-5.58 13.585-8.073a109.853 109.853 0 0 0 11.84-7.44c.183-.14.38-.267.563-.408-.521-.253-1.168-.338-1.73-.535a37.754 37.754 0 0 0-2.138-.69 99.58 99.58 0 0 0-4.485-1.184c-1.463-.352-2.925-.704-4.374-1.113-.38-.099-4.26-1.438-4.289-1.395.605-.986 1.392-1.803 2.194-2.62 1.223-1.226 2.489-2.396 3.726-3.608 1.477-1.45 3.122-2.705 4.683-4.071 4.739-4.157 9.858-7.552 15.103-10.99 1.448 1.987 3.108 3.818 4.767 5.636 1.913 2.1 3.811 4.198 5.723 6.284a35.219 35.219 0 0 0 1.603 1.676c-.379.226-.759.45-1.124.648a180.57 180.57 0 0 1-13.219 8.031c.07-.042.534.212.619.254.21.084.408.169.618.253 2.546 1.085 5.02 2.34 7.468 3.636 1.223.648 2.432 1.31 3.656 1.958.618.324 1.223.648 1.842.972.562.296 1.167.536 1.673.958-.07.056-.169.098-.239.14a5.906 5.906 0 0 1-.886.521c-.351.17-.717.31-1.082.438l-2.616.972c-.816.296-1.589.662-2.419.944-.394.127-.731.24-.984.338-4.5 1.663-9.267 3.212-14.611 4.762-.492.141-.97.282-1.462.423-7.917 2.353-16.144 4.382-24.412 5.185Zm-42.834 63.035c1.884-1.635 3.993-2.494 6.271-3.1-.309.395-.618.747-.9 1.17-.393.606-.688 1.296-.941 2.029-.183.013-.352.042-.535.07-1.308.113-2.657.225-3.994.521-.295.07-.548.127-.829.211.267-.324.577-.605.928-.901Zm-6.778 10.581a1.507 1.507 0 0 0-.225-.113c2.095-2.099 4.219-3.353 6.806-4.001l3.867-.958c.085 2.099.493 4.198 1.153 5.96-.225.028-.436.07-.675.098-3.909.268-7.607.409-10.926-.986Zm9.084 6.269c.745-.168 1.56-.309 2.405-.422l.788-.042c.8-.071 1.603-.113 2.404-.169a15.51 15.51 0 0 0 3.122 2.352c-3.094-.098-6.033-.38-8.719-1.719Zm12.628-1.803c-2.433-1.029-4.275-2.578-5.16-4.396-1.337-2.663-1.759-7.678-.31-9.904 1.701-2.578 4.486-4.438 7.495-6.031a6.04 6.04 0 0 0 .957-.493c1.209-.606 2.404-1.155 3.6-1.719 7.761-3.536 14.146-6.805 19.813-10.116a62.676 62.676 0 0 1-3.037 9.327c-3.685 8.806-9.31 17.344-16.454 25.079-2.432-.408-4.766-.845-6.904-1.747Zm136.699 1.353a67.967 67.967 0 0 1-2.137 5.368c-.295.69-.605 1.352-.914 2.014-3.727 7.806-8.817 14.921-14.921 21.007a63.835 63.835 0 0 1-2.657 2.536 72.233 72.233 0 0 1-4.908 4.101 8.107 8.107 0 0 1-.591.45 68.051 68.051 0 0 1-4.106 2.846c-5.835 3.691-12.037 6.185-18.899 7.933-1.435.38-6.173 2.014-7.116.098-.211-.451-.183-1.015-.084-1.522.675-3.437 3.206-6.664 4.711-9.792 4.949-10.299 7.523-21.387 15.707-29.841 5.133-5.311 11.531-9.383 17.986-12.68a168.675 168.675 0 0 0 20.193-12.173c.647 7.58-.042 13.441-2.264 19.655Zm38.025-69.023a27.882 27.882 0 0 1-2.222 8.425c-3.375 7.651-9.478 13.695-14.878 19.021-12.178 12.031-25.987 22.021-41.076 29.727-6.483 3.298-13.05 6.904-18.351 11.991-7.566 7.227-11.151 15.399-14.766 24.98-2.671 7.03-6.735 13.539-11.812 19.091-8.128 8.876-19.729 13.469-31.317 15.653-5.976 1.127-12.08 1.662-18.154 1.831-5.105.127-12.6 1.142-17.268-1.268a4.955 4.955 0 0 1-.605-.338c-.014-.014-.028-.014-.042-.028-.296-.212-.576-.493-.633-.831-.183-.818.731-1.409 1.505-1.705 7.692-2.959 15.876-4.41 23.4-7.834 5.315-2.395 10.195-5.748 14.272-9.933 1.618-1.662 9.507-10.552 4.388-12.145-.422-.126-.886 0-1.308.127-5.048 1.607-9.956 3.48-15.075 4.875-3.178.888-6.356 1.747-9.534 2.635-2.686.732-5.554 1.338-8.325 1.451-.31.014-.633.028-.928-.07-2.503-.846 2.461-3.255 2.981-3.537 2.222-1.268 4.486-2.493 6.581-3.973 3.882-2.705 7.172-6.03 9.999-9.806 1.912-2.578 3.825-5.382 4.43-8.623.224-1.169.801-5.142-.521-5.945-.239-.127-.534-.113-.816-.085-1.617.268-2.98 1.311-4.33 2.226-4.712 3.227-9.929 5.861-14.99 8.44-.55.282-1.056.535-1.45.718-2.193 1.029-4.345 2.142-6.454 3.213-6.187 3.184-12.656 5.818-19.687 6.354-.45.028-.914.07-1.322-.127-.422-.183-.745-.62-.633-1.057.084-.282.31-.493.548-.676 1.97-1.564 4.12-2.874 6.188-4.311 3.656-2.551 7.101-5.354 10.406-8.313 11.193-9.947 19.8-21.669 24.919-33.913 3.754-8.974 5.245-18.315 5.512-27.29.042-1.536.07-3.072.028-4.565-.014-1.874-.099-3.734-.197-5.565-.127-2.128-.31-4.213-.52-6.256a194.151 194.151 0 0 0-1.013-7.904c4.556-1.056 9.099-2.466 13.626-3.705 4.838-1.31 9.647-2.663 14.443-4.129 1.448-.45 2.896-.901 4.331-1.38a153.882 153.882 0 0 0 4.472-1.55c1.49-.536 2.967-1.099 4.429-1.69a106.588 106.588 0 0 0 4.359-1.875 90.45 90.45 0 0 0 4.247-2.085 70.83 70.83 0 0 0 2.067-1.127c.338-.198.69-.394 1.027-.592l.506-.296c.028-.014.436-.253.422-.268-.267-.21-.548-.366-.83-.563-.21-.141-.408-.31-.618-.437-1.055-.662-2.124-1.324-3.179-1.986-2.348-1.465-4.682-2.888-7.185-4.058-1.294-.606-2.588-1.212-3.755-2.029-.014-.014.956-.62 1.041-.662.224-.127.464-.253.703-.38.338-.17.633-.41.956-.62.886-.55 1.814-1.029 2.714-1.564a54.314 54.314 0 0 1 3.192-1.79c1.73 1.72 4.092 2.804 6.314 3.72 2.433 1 5.569.846 8.114.437 3.91-.634 7.594-2.283 10.969-4.382 7.706-4.79 11.601-11.2 12.248-20.162.239-3.325.478-6.452 2.151-8.678 1.969-2.607 5.836-4.03 9.577-5.41 2.91-1.058 5.878-2.354 8.789-3.622 1.532-.648 3.051-1.324 4.584-1.944.633-.268 1.519-.817 2.222-.831 1.167-.028 3.065.93 4.021 1.55 1.224.789.746 2.536.422 3.705-1.701 6.058-2.84 12.173-4.949 18.133a103.98 103.98 0 0 1-13.247 25.43c-4.148 5.834-10.434 9.75-15.806 14.287-7.214 6.1-11.264 15.456-11.306 25.981 0 .099-.155.141-.239.154-.338.071-.69.029-1.027 0a21.828 21.828 0 0 1-1.673-.196c-.717-.099-1.435-.226-2.152-.339-.815-.141-1.631-.296-2.447-.45-.857-.17-1.701-.339-2.559-.508-.829-.169-1.659-.338-2.503-.507-.759-.155-1.505-.31-2.264-.479-.618-.127-1.223-.268-1.842-.394-.337-.071-.661-.17-.984-.212-.015 0-.043 0-.071.042-.014.071.028.155.056.226.085.141.141.281.254.394.506.55.998 1.114 1.589 1.592 3.768 3.015 8.268 4.847 13.064 5.368a31.57 31.57 0 0 0 4.162.198c16.453-.24 30.15-8.764 41.863-19.613 4.936-4.565 10.055-9.284 16.242-9.89 3.979-.395 7.973 1.127 10.153 3.846 2.011 2.508 2.841 6.284 2.377 10.68Zm-55.307 7.369a49.167 49.167 0 0 1-11.798 2.549c.098-8.974 3.501-16.935 9.562-22.035.59-.493 1.195-.958 1.771-1.437-1.954 6.424-1.799 13.92.465 20.923Zm56.769-21.078c-1.013-1.268-2.264-2.325-3.67-3.198.45-.352.886-.719 1.308-1.071 3.909-2.959 7.678-5.636 12.178-6.439.379-.07.745-.112 1.096-.084-.014.084-.028.197-.07.338-.759 3.874-2.18 6.749-4.556 9.299l-4.247 4.537a15.336 15.336 0 0 0-2.039-3.382Zm10.518 5.424c-1.307 4.382-4.035 7.37-7.326 10.398a25.102 25.102 0 0 0 .239-6.862c.675-.549 1.35-1.126 2.096-1.704 1.237-.986 2.545-1.986 3.698-3.17.689-.69 1.265-1.409 1.828-2.142 0 1.114-.183 2.283-.535 3.48Z" fill="#1D445C"/><path d="M57.176 149.912c-.113.212-.24.423-.225.662.014.24.197.48.435.465.127-.013.225-.084.324-.154 2.306-1.663 4.64-3.354 6.54-5.467 1.897-2.113 3.388-4.72 3.697-7.552.043-.451-.014-1.015-.436-1.155-.196-.071-.407-.014-.604.028-1.28.352-3.15 1.029-4.036 2.071-.731.859-.774 2.001-1.196 3.072-1.139 2.86-2.995 5.367-4.5 8.03ZM66.429 147.926c-.155.268-.31.564-.296.86.015.309.254.634.563.606.155-.015.296-.113.422-.198 3.01-2.17 6.032-4.367 8.522-7.115 2.489-2.747 4.415-6.143 4.81-9.834.055-.577-.015-1.324-.563-1.507-.254-.085-.535-.029-.788.042-1.66.465-4.106 1.324-5.26 2.691-.956 1.127-.998 2.606-1.546 4.001-1.49 3.719-3.895 6.988-5.864 10.454ZM106.605 99.91c-.084.126-.239.197-.393.267-3.502 1.536-7.046 3.072-10.842 3.819a23.425 23.425 0 0 1-4.219.479c-1.66.042-3.347-.113-4.95-.508a75.307 75.307 0 0 0-.422-5.072c.732-.45 1.505-.802 2.25-.93.886-.14 1.744.029 2.602.268.632.17 1.266.338 1.94.437 4.247.62 8.522.197 12.755.268.323 0 .689.014.956.183.295.155.492.535.323.789ZM100.727 110.97c-.085.127-.24.197-.394.268-2.94 1.268-5.892 2.564-9.028 3.382-.605.183-1.21.309-1.828.436a22.749 22.749 0 0 1-3.108.423c.099-1.945.112-3.875.07-5.819l.267.042c1.547.226 3.094.31 4.641.324 2.7.043 5.414-.113 8.114-.07.324 0 .675.014.956.183.295.169.478.563.31.831ZM182.837 193.871a78.407 78.407 0 0 1-4.135 4.199c-1.631-.719-3.178-1.551-4.697-2.452-1.265-.747-2.503-1.536-3.754-2.325-.127-.084-.281-.183-.338-.324-.126-.282.113-.62.436-.747.31-.112.647-.084.999-.028 1.772.268 3.557.592 5.315.902 2.039.352 4.093.676 6.174.775ZM175.074 201.282a76.194 76.194 0 0 1-6.019 4.536 23.909 23.909 0 0 1-3.318-1.873c-.45-.296-.9-.62-1.322-.93-2.672-2.015-5.006-4.396-7.298-6.763-.113-.113-.225-.226-.267-.394-.043-.297.28-.592.604-.634.338-.029.675.084.985.211 3.557 1.381 6.974 3.184 10.673 4.283.422.127.843.239 1.294.352 1.56.395 3.192.282 4.514 1.099.028.028.098.057.154.113Z" fill="#1D445C"/></svg>
